Coordinates
version=1
nRows=38
nColumns=12
inDegrees=yes

Units are S.I. units (second, meters, Newtons, ...)
Angles are in degrees

endheader
time	SC_y	SC_z	SC_x	AC_y	AC_z	AC_x	GH_y	GH_z	GH_yy	EL_x	PS_y
       0.0              -24.25          25.19          72.87           45.0         -6.124         -11.36         -93.91          8.048         -19.08          49.06          62.43
   0.01162              -24.26          25.19          72.86           45.0         -6.122         -11.36         -93.92           8.05          -19.1          49.06          62.43
   0.02325              -24.26          25.19          72.85          45.01         -6.121         -11.36         -93.93          8.052         -19.12          49.07          62.44
   0.03487              -24.27          25.19          72.84          45.01         -6.119         -11.35         -93.95          8.054         -19.15          49.07          62.44
    0.0465              -24.27          25.19          72.83          45.01         -6.117         -11.35         -93.96          8.056         -19.17          49.08          62.45
   0.05812              -24.28          25.19          72.82          45.02         -6.115         -11.35         -93.98          8.058          -19.2          49.09          62.46
   0.06975              -24.29          25.19          72.81          45.02         -6.113         -11.34          -94.0          8.061         -19.22          49.09          62.47
   0.08137              -24.29          25.19           72.8          45.02         -6.111         -11.34         -94.01          8.063         -19.25           49.1          62.48
     0.093               -24.3          25.19          72.79          45.03         -6.108         -11.33         -94.03          8.066         -19.28          49.11          62.49
    0.1046              -24.31          25.18          72.78          45.03         -6.105         -11.33         -94.05          8.069         -19.32          49.12           62.5
    0.1162              -24.32          25.18          72.76          45.04         -6.102         -11.32         -94.08          8.072         -19.35          49.12          62.51
    0.1279              -24.33          25.18          72.75          45.04         -6.099         -11.32          -94.1          8.076         -19.39          49.13          62.52
    0.1395              -24.34          25.18          72.73          45.05         -6.096         -11.31         -94.12           8.08         -19.43          49.14          62.53
    0.1511              -24.35          25.18          72.71          45.05         -6.092          -11.3         -94.15          8.084         -19.48          49.16          62.54
    0.1627              -24.36          25.18          72.69          45.06         -6.089          -11.3         -94.18          8.088         -19.53          49.17          62.56
    0.1744              -24.38          25.18          72.67          45.06         -6.084         -11.29         -94.21          8.093         -19.58          49.18          62.57
     0.186              -24.39          25.18          72.65          45.07          -6.08         -11.28         -94.25          8.098         -19.64           49.2          62.59
    0.1976              -24.41          25.18          72.63          45.08         -6.075         -11.27         -94.29          8.103          -19.7          49.21          62.61
    0.2092              -24.42          25.18           72.6          45.09         -6.069         -11.26         -94.33          8.109         -19.77          49.23          62.63
    0.2209              -24.44          25.18          72.57           45.1         -6.063         -11.25         -94.38          8.116         -19.84          49.25          62.65
    0.2325              -24.46          25.17          72.54          45.11         -6.057         -11.24         -94.43          8.123         -19.93          49.27          62.68
    0.2441              -24.49          25.17           72.5          45.12          -6.05         -11.22         -94.48          8.131         -20.02          49.29          62.71
    0.2557              -24.51          25.17          72.46          45.13         -6.042         -11.21         -94.54           8.14         -20.12          49.32          62.73
    0.2674              -24.54          25.17          72.42          45.15         -6.033         -11.19         -94.61           8.15         -20.23          49.34          62.77
     0.279              -24.57          25.17          72.37          45.16         -6.023         -11.17         -94.69          8.161         -20.35          49.37           62.8
    0.2906              -24.61          25.16          72.32          45.18         -6.012         -11.15         -94.77          8.173         -20.49          49.41          62.85
    0.3022              -24.65          25.16          72.26           45.2           -6.0         -11.13         -94.86          8.187         -20.64          49.45          62.89
    0.3139              -24.69          25.16          72.19          45.22         -5.986          -11.1         -94.97          8.203         -20.82          49.49          62.94
    0.3255              -24.74          25.15          72.11          45.25          -5.97         -11.07         -95.09           8.22         -21.01          49.54           63.0
    0.3371              -24.79          25.15          72.02          45.27         -5.952         -11.04         -95.23           8.24         -21.23          49.59          63.07
    0.3487              -24.86          25.14          71.93          45.31         -5.932          -11.0         -95.38          8.262         -21.49          49.66          63.14
    0.3604              -24.93          25.14          71.81          45.34         -5.909         -10.96         -95.56          8.288         -21.78          49.73          63.23
     0.372              -25.02          25.13          71.68          45.38         -5.882         -10.91         -95.77          8.318         -22.12          49.81          63.33
    0.3836              -25.12          25.13          71.53          45.43         -5.851         -10.85          -96.0          8.353         -22.51          49.91          63.45
    0.3952              -25.23          25.12          71.35          45.49         -5.814         -10.78         -96.28          8.394         -22.96          50.03          63.59
    0.4069              -25.37          25.11          71.14          45.56         -5.771          -10.7         -96.61          8.441          -23.5          50.16          63.75
    0.4185              -25.53          25.09          70.89          45.64          -5.72          -10.6         -97.01          8.498         -24.14          50.32          63.94
    0.4301              -25.73          25.08          70.59          45.74         -5.659         -10.49         -97.48          8.567         -24.91          50.51          64.17
